<svg xmlns="http://www.w3.org/2000/svg" width="100.345" height="83.712" viewBox="0 0 100.345 83.712">
  <g id="Group_77" data-name="Group 77" transform="translate(-3355.236 -240.515)">
    <path id="Path_66" data-name="Path 66" d="M329.735,227.61a3.342,3.342,0,0,1,1.675.318,1.25,1.25,0,0,1,.491,1.1,1.183,1.183,0,0,1-.2.722,1.461,1.461,0,0,1-.578.519,1.6,1.6,0,0,1,.751.52,1.433,1.433,0,0,1,.26.9,1.418,1.418,0,0,1-.52,1.213,2.682,2.682,0,0,1-1.588.4h-4.851v-5.66h4.562Zm-2.368,1.328v.809h1.473a1.314,1.314,0,0,0,.606-.087.422.422,0,0,0,0-.635,1.375,1.375,0,0,0-.635-.087Zm0,2.916h1.559a1.808,1.808,0,0,0,.693-.086c.116-.058.144-.173.144-.347a.428.428,0,0,0-.173-.375,1.656,1.656,0,0,0-.693-.116h-1.559v.924Z" transform="translate(3051.72 90.785)"/>
    <path id="Path_67" data-name="Path 67" d="M354.959,227.61v2.772a1.992,1.992,0,0,0,.26,1.184,1.029,1.029,0,0,0,.9.317,1.117,1.117,0,0,0,.9-.317,1.989,1.989,0,0,0,.26-1.184V227.61h2.195v2.974a2.669,2.669,0,0,1-.809,2.166,5.006,5.006,0,0,1-5.082,0,2.67,2.67,0,0,1-.809-2.166V227.61Z" transform="translate(3035.16 90.785)"/>
    <path id="Path_68" data-name="Path 68" d="M384.8,227.61c.491,0,.9.029,1.184.058a1.948,1.948,0,0,1,.693.231,1.332,1.332,0,0,1,.491.491,1.481,1.481,0,0,1,.173.722,1.554,1.554,0,0,1-.26.9,1.444,1.444,0,0,1-.693.549,1.1,1.1,0,0,1,.52.375,1.676,1.676,0,0,1,.173.808v.173c.029.75.144,1.155.289,1.242v.086h-2.425a1.287,1.287,0,0,1-.116-.693,2.06,2.06,0,0,0-.029-.462.615.615,0,0,0-.2-.433,1.017,1.017,0,0,0-.578-.116h-1.3v1.733H380.5v-5.66Zm-2.079,2.455H384a1.289,1.289,0,0,0,.693-.116.409.409,0,0,0,.2-.4.366.366,0,0,0-.2-.375,1.535,1.535,0,0,0-.78-.116H382.7v1.011Z" transform="translate(3018.511 90.785)"/>
    <path id="Path_69" data-name="Path 69" d="M413.232,232.562a2.413,2.413,0,0,1-.982.491,5.622,5.622,0,0,1-1.5.144,4.627,4.627,0,0,1-2.859-.751,3.071,3.071,0,0,1,0-4.447,4.63,4.63,0,0,1,2.859-.751,4.953,4.953,0,0,1,2.541.548,1.991,1.991,0,0,1,1.1,1.5h-2.4a1.164,1.164,0,0,0-.462-.52,1.37,1.37,0,0,0-.693-.174,1.414,1.414,0,0,0-1.1.434,1.893,1.893,0,0,0,0,2.339,1.463,1.463,0,0,0,1.126.4,1.823,1.823,0,0,0,.924-.2.8.8,0,0,0,.433-.549H411.3v-1.213h3.176v3.205h-.982Z" transform="translate(3002.644 91.002)"/>
    <path id="Path_70" data-name="Path 70" d="M436.263,233.27v-5.66h6.006V229h-3.812v.664h3.09v1.386h-3.09v.751h3.985v1.473Z" transform="translate(2985.042 90.785)"/>
    <path id="Path_71" data-name="Path 71" d="M465.7,227.61c.491,0,.9.029,1.184.058a1.944,1.944,0,0,1,.693.231,1.336,1.336,0,0,1,.491.491,1.481,1.481,0,0,1,.173.722,1.554,1.554,0,0,1-.26.9,1.442,1.442,0,0,1-.693.549,1.1,1.1,0,0,1,.52.375,1.681,1.681,0,0,1,.173.808v.173c.029.75.144,1.155.289,1.242v.086h-2.425a1.287,1.287,0,0,1-.116-.693,2.062,2.062,0,0,0-.029-.462.614.614,0,0,0-.2-.433,1.016,1.016,0,0,0-.577-.116h-1.3v1.733H461.4v-5.66Zm-2.108,2.455h1.271a1.289,1.289,0,0,0,.693-.116.409.409,0,0,0,.2-.4.366.366,0,0,0-.2-.375,1.535,1.535,0,0,0-.78-.116h-1.213v1.011Z" transform="translate(2969.956 90.785)"/>
    <path id="Path_72" data-name="Path 72" d="M370.248,94.745a5.2,5.2,0,0,0-.578-.9h1.213V83.136h-6.7a7.914,7.914,0,0,0-1.444-.144,5.982,5.982,0,0,0-4.649,2.108,7.131,7.131,0,0,0-1.7,4.823v.058a6.451,6.451,0,0,0-2.252-1.357,7.325,7.325,0,0,0-2.4-.4c-.231,0-.462.029-.664.029A30.57,30.57,0,0,0,347.9,57.206a6.276,6.276,0,0,1-5.025,1.617,25.616,25.616,0,0,1,1.3,31.5,5.427,5.427,0,0,0-4.3-1.964,5.705,5.705,0,0,0-1.588.2H329.3V90.3a5.544,5.544,0,0,0-4.274-1.906,5.7,5.7,0,0,0-1.588.2h-8.981v1.819a6.171,6.171,0,0,0-.635-.606,7.517,7.517,0,0,0-4.909-1.56,8.055,8.055,0,0,0-6.18,2.455,25.716,25.716,0,0,1-2.223-26.942,6.36,6.36,0,0,1-2.051-2.05c1.964-6.757,10.049-7.768,11-7.855a25.928,25.928,0,0,1,4.36-2.252c.26.116.433.174.433.174a8.184,8.184,0,0,0-4.187,4.043c-1.646,0-6.035.491-9.529,5.573,0,0,3.321,4.158,9.183-.78a14.09,14.09,0,0,0,2.195,4.851c3.783,5.544.289,9.327-1.155,10.771S305.8,86.717,323.3,86.717c17.47,0,13.976-9.327,11.666-11.06-2.339-1.761-2.628-5.256.289-9.038s1.444-11.349,1.444-11.349c9.616,4.967,9.9-3.494,9.9-3.494s-1.155.577-5.256.577c-4.071,0-5.833,1.444-5.833,1.444a9.386,9.386,0,0,0-3.205-2.628c4.736-.578,9.212-1.877,11.955-4.476a8.316,8.316,0,0,0,2.627-5.429c.606-6.411-5.515-7.883-5.515-7.883a6.39,6.39,0,0,1-.289,8.172,10.779,10.779,0,0,1-1.5,1.53,11.448,11.448,0,0,1-7.248,2.57,23.512,23.512,0,0,0-14.554.577c-4.389,0-5.486-1.819-5.746-4.476-.087-.866-.087-1.819-.087-2.8,0-4.1,6.988-6.151,6.988-6.151s-11.955,1.444-12.532,8.75a8.055,8.055,0,0,0,.866,4.418A9.338,9.338,0,0,0,309.03,48.4a30.568,30.568,0,0,0-16.258,27.028,31.287,31.287,0,0,0,.982,7.768h-7.941v2.628a7.577,7.577,0,0,0-6.064-2.888,7.765,7.765,0,0,0-6.67,3.7A14.33,14.33,0,0,0,271,94.745a14.768,14.768,0,0,0,2.108,8.2,7.814,7.814,0,0,0,12.706.808v2.628h17.73v-1.011a5.968,5.968,0,0,0,3.523,1.184,5.984,5.984,0,0,0,1.444-.173H347v-1.3a6.894,6.894,0,0,0,4.678,1.646,7.426,7.426,0,0,0,4.245-1.271,3.762,3.762,0,0,0,.664-.519v1.444h6.757a6.914,6.914,0,0,0,1.328.144,6.283,6.283,0,0,0,4.909-2.31,7.792,7.792,0,0,0,1.761-5.169,9.247,9.247,0,0,0-1.1-4.3M330.977,82.7a3.812,3.812,0,1,1,0-6.584,3.8,3.8,0,0,0,0,6.584M313.16,59.256a6.442,6.442,0,1,1,6.439,6.613,6.539,6.539,0,0,1-6.439-6.613m4.129,16.633a3.653,3.653,0,0,1,1.993.577,3.837,3.837,0,0,0,0,6.526,3.917,3.917,0,0,1-1.993.577,3.841,3.841,0,0,1,0-7.681M330.6,61.1c-1.531,0-2.773-1.819-2.773-4.071s1.242-4.072,2.773-4.072,2.772,1.819,2.772,4.072S332.132,61.1,330.6,61.1m-46.376,40.369a5.192,5.192,0,0,1-8.894,0,11.909,11.909,0,0,1-1.675-6.728,11.909,11.909,0,0,1,1.675-6.728,5.192,5.192,0,0,1,8.894,0,11.909,11.909,0,0,1,1.675,6.728,12.078,12.078,0,0,1-1.675,6.728m32.89-10.28h5.111v1.328h.087a3.137,3.137,0,0,1,5.053-.462,4.594,4.594,0,0,1,.9,2.945v5.978h1.271v2.685h-5V95.611a3.063,3.063,0,0,0-.231-1.386.87.87,0,0,0-.808-.4,1.169,1.169,0,0,0-.549.116,8.045,8.045,0,0,0-.722.491v6.584H323.3V103.7h-6.179v-2.686H318.5V93.879h-1.386Zm-8.2-.347a5.1,5.1,0,0,1,3.263.953,3.436,3.436,0,0,1,1.184,2.8v6.411h1.184V103.7h-4.909v-.982a3.477,3.477,0,0,1-2.57,1.155,2.98,2.98,0,0,1-2.425-1.155,4.746,4.746,0,0,1,.086-5.891,3.483,3.483,0,0,1,2.686-1.184,4.112,4.112,0,0,1,2.252.751V95.063a2.781,2.781,0,0,0-.26-1.415.954.954,0,0,0-.924-.4,1.217,1.217,0,0,0-1.213.982l-3.35-.693a5.182,5.182,0,0,1,5-2.685m-8.028,12.85h-5V95.38a3.04,3.04,0,0,0-.231-1.328.87.87,0,0,0-.808-.4,2.155,2.155,0,0,0-1.271.549v6.786h1.1v2.685H288.47v-2.685h1.357V88.45H288.47V85.765h5.111v6.179a4.322,4.322,0,0,1,2.715-1.126,2.961,2.961,0,0,1,2.455,1.1,5.009,5.009,0,0,1,.9,3.119v5.949h1.27V103.7Zm38.463,0V95.64a3.062,3.062,0,0,0-.231-1.386.87.87,0,0,0-.808-.4,1.169,1.169,0,0,0-.548.116,8.193,8.193,0,0,0-.722.491v6.584h1.068v2.686h-6.179V101.04h1.386V93.907h-1.386V91.222h5.111V92.55h.087a2.85,2.85,0,0,1,2.714-1.53,2.9,2.9,0,0,1,2.339,1.068,4.6,4.6,0,0,1,.9,2.945v5.978h1.271V103.7Zm16.98-5.689h-5.718a10.6,10.6,0,0,0,.231,2.743.9.9,0,0,0,.924.635,1.043,1.043,0,0,0,.866-.4,2.688,2.688,0,0,0,.4-1.184l3.09,1.155a4.784,4.784,0,0,1-1.761,2.31,4.657,4.657,0,0,1-2.743.809c-3.147,0-4.707-2.253-4.707-6.757a7.812,7.812,0,0,1,1.271-4.823,4.207,4.207,0,0,1,3.552-1.646,4.161,4.161,0,0,1,3.292,1.53,6.7,6.7,0,0,1,1.3,4.447Zm11.2,4.476a3.594,3.594,0,0,1-2.888,1.357,3.759,3.759,0,0,1-2.743-1.271V103.7h-2.685V97.864H361.9a5.256,5.256,0,0,0,.433,2.657,1.339,1.339,0,0,0,1.155.606,1.12,1.12,0,0,0,.982-.462,2.17,2.17,0,0,0,.346-1.3,3.116,3.116,0,0,0-.4-1.415,10.7,10.7,0,0,0-2.021-2.224,12.117,12.117,0,0,1-2.772-3.292,5.954,5.954,0,0,1-.606-2.541,4.6,4.6,0,0,1,1.039-3.09,3.356,3.356,0,0,1,2.657-1.213,3.978,3.978,0,0,1,1.386.231,4.676,4.676,0,0,1,1.415,1.039V85.735H368.2v5.4h-2.685a4.471,4.471,0,0,0-.4-2.281,1.235,1.235,0,0,0-1.126-.578,1.174,1.174,0,0,0-.866.347,1.481,1.481,0,0,0-.318.981,2.217,2.217,0,0,0,.375,1.3,8.472,8.472,0,0,0,1.473,1.5,14.41,14.41,0,0,1,3.234,3.552,6.21,6.21,0,0,1,.751,3.032,4.985,4.985,0,0,1-1.1,3.494" transform="translate(3084.236 207.71)"/>
    <path id="Path_73" data-name="Path 73" d="M471.193,184.344a.816.816,0,0,0-.78.664,7.294,7.294,0,0,0-.2,2.08H472.2v-.607c-.029-1.415-.347-2.137-1.011-2.137" transform="translate(2964.666 116.754)"/>
    <path id="Path_74" data-name="Path 74" d="M291.685,172.6a1.1,1.1,0,0,0-1.79,0,4.361,4.361,0,0,0-.433,1.761c-.086.866-.116,2.195-.116,3.985s.029,3.118.116,4.014a4.224,4.224,0,0,0,.433,1.761.972.972,0,0,0,.9.462.943.943,0,0,0,.9-.462,4.357,4.357,0,0,0,.433-1.761c.087-.866.116-2.195.116-4.014,0-1.79-.029-3.119-.116-3.985a4.5,4.5,0,0,0-.433-1.761" transform="translate(3073.225 124.081)"/>
    <path id="Path_75" data-name="Path 75" d="M363.136,199.077a1.334,1.334,0,0,0,1.126-.722v-1.877a1.389,1.389,0,0,0-1.069-.577.955.955,0,0,0-.866.462,2.088,2.088,0,0,0-.318,1.213,1.8,1.8,0,0,0,.318,1.126.913.913,0,0,0,.808.375" transform="translate(3029.61 109.817)"/>
    <path id="Path_76" data-name="Path 76" d="M393.6,97.162a1.213,1.213,0,1,1-1.184,1.213,1.2,1.2,0,0,1,1.184-1.213" transform="translate(3011.358 169.082)"/>
    <path id="Path_77" data-name="Path 77" d="M416.284,91.167A1.213,1.213,0,1,1,415.1,92.38a1.2,1.2,0,0,1,1.184-1.213" transform="translate(2997.745 172.68)"/>
  </g>
</svg>
